<?xml version='1.0' encoding='iso-8859-1'?>
<!DOCTYPE svg PUBLIC '-//W3C//DTD SVG 1.1//EN' 'http://www.w3.org/Graphics/SVG/1.1/DTD/svg11.dtd'>
<svg version="1.1" xmlns="http://www.w3.org/2000/svg" viewBox="0 0 447.899 447.899" xmlns:xlink="http://www.w3.org/1999/xlink" enable-background="new 0 0 447.899 447.899">
  <g>
    <path d="m419.256,10.81h-356.714c-15.793,0-28.643,12.849-28.643,28.643v36.847c-19.258,3.54-33.899,20.439-33.899,40.705v278.686c0,22.827 18.571,41.398 41.398,41.398h35.698c22.827,0 41.398-18.571 41.398-41.398v-4.881h300.761c15.794,0 28.643-12.849 28.643-28.643v-322.715c0.001-15.793-12.848-28.642-28.642-28.642zm-315.761,384.881c0,14.556-11.842,26.398-26.398,26.398h-35.699c-14.556,0-26.398-11.842-26.398-26.398v-278.686c0-11.951 7.985-22.067 18.899-25.307v270.469c0,15.793 12.849,28.643 28.643,28.643h40.954v4.881zm329.403-33.524c0,7.522-6.12,13.643-13.643,13.643h-300.761v-7.5h31.287c14.991,0 27.188-12.196 27.188-27.188v-280.625c0-14.991-12.196-27.188-27.188-27.188h-66.196c-14.991,0-27.188,12.196-27.188,27.188v280.625c0,14.991 12.196,27.188 27.188,27.188h19.909v7.5h-40.953c-7.522,0-13.643-6.12-13.643-13.643v-322.715c0-7.522 6.12-13.643 13.643-13.643h356.715c7.522,0 13.643,6.12 13.643,13.643v322.715zm-349.314-3.857c-9.477,0-17.188-7.71-17.188-17.188v-280.625c0-9.477 7.71-17.188 17.188-17.188h66.195c9.477,0 17.188,7.71 17.188,17.188v280.625c0,9.477-7.71,17.188-17.188,17.188h-66.195z"/>
    <path d="m413.932,33.31h-216.949c-6.323,0-11.467,5.144-11.467,11.467v312.066c0,6.323 5.144,11.467 11.467,11.467h216.949c6.323,0 11.467-5.144 11.467-11.467v-312.066c0-6.323-5.144-11.467-11.467-11.467zm1.467,323.533c0,0.809-0.658,1.467-1.467,1.467h-216.949c-0.809,0-1.467-0.658-1.467-1.467v-312.066c0-0.809 0.658-1.467 1.467-1.467h216.949c0.809,0 1.467,0.658 1.467,1.467v312.066z"/>
    <path d="m400.399,53.31h-189.883c-2.761,0-5,2.239-5,5v90.145c0,2.761 2.239,5 5,5h189.883c2.762,0 5-2.239 5-5v-90.145c0-2.762-2.238-5-5-5zm-5,90.144h-179.883v-80.144h179.883v80.144z"/>
    <path d="m229.987,87.382h61.941c2.762,0 5-2.239 5-5s-2.238-5-5-5h-61.941c-2.762,0-5,2.239-5,5s2.238,5 5,5z"/>
    <path d="m229.987,108.382h61.941c2.762,0 5-2.239 5-5s-2.238-5-5-5h-61.941c-2.762,0-5,2.239-5,5s2.238,5 5,5z"/>
    <path d="m229.987,129.382h61.941c2.762,0 5-2.239 5-5s-2.238-5-5-5h-61.941c-2.762,0-5,2.239-5,5s2.238,5 5,5z"/>
    <path d="m318.987,87.382h61.941c2.762,0 5-2.239 5-5s-2.238-5-5-5h-61.941c-2.762,0-5,2.239-5,5s2.238,5 5,5z"/>
    <path d="m318.987,108.382h61.941c2.762,0 5-2.239 5-5s-2.238-5-5-5h-61.941c-2.762,0-5,2.239-5,5s2.238,5 5,5z"/>
    <path d="m318.987,129.382h61.941c2.762,0 5-2.239 5-5s-2.238-5-5-5h-61.941c-2.762,0-5,2.239-5,5s2.238,5 5,5z"/>
    <path d="m248.988,163.136h-29.491c-7.709,0-13.98,6.271-13.98,13.98v13.812c0,7.709 6.271,13.98 13.98,13.98h29.491c7.709,0 13.98-6.271 13.98-13.98v-13.812c0-7.708-6.271-13.98-13.98-13.98zm3.98,27.792c0,2.195-1.785,3.98-3.98,3.98h-29.491c-2.195,0-3.98-1.786-3.98-3.98v-13.812c0-2.195 1.786-3.98 3.98-3.98h29.491c2.195,0 3.98,1.786 3.98,3.98v13.812z"/>
    <path d="m320.203,163.136h-29.491c-7.709,0-13.98,6.271-13.98,13.98v13.812c0,7.709 6.271,13.98 13.98,13.98h29.491c7.709,0 13.98-6.271 13.98-13.98v-13.812c0-7.708-6.271-13.98-13.98-13.98zm3.98,27.792c0,2.195-1.785,3.98-3.98,3.98h-29.491c-2.195,0-3.98-1.786-3.98-3.98v-13.812c0-2.195 1.785-3.98 3.98-3.98h29.491c2.195,0 3.98,1.786 3.98,3.98v13.812z"/>
    <path d="m391.418,163.136h-29.491c-7.709,0-13.98,6.271-13.98,13.98v13.812c0,7.709 6.271,13.98 13.98,13.98h29.491c7.709,0 13.98-6.271 13.98-13.98v-13.812c0.001-7.708-6.271-13.98-13.98-13.98zm3.981,27.792c0,2.195-1.785,3.98-3.98,3.98h-29.491c-2.195,0-3.98-1.786-3.98-3.98v-13.812c0-2.195 1.785-3.98 3.98-3.98h29.491c2.195,0 3.98,1.786 3.98,3.98v13.812z"/>
    <path d="m248.988,210.604h-29.491c-7.709,0-13.98,6.271-13.98,13.98v13.812c0,7.709 6.271,13.98 13.98,13.98h29.491c7.709,0 13.98-6.271 13.98-13.98v-13.812c0-7.708-6.271-13.98-13.98-13.98zm3.98,27.792c0,2.195-1.785,3.98-3.98,3.98h-29.491c-2.195,0-3.98-1.786-3.98-3.98v-13.812c0-2.195 1.786-3.98 3.98-3.98h29.491c2.195,0 3.98,1.786 3.98,3.98v13.812z"/>
    <path d="m320.203,210.604h-29.491c-7.709,0-13.98,6.271-13.98,13.98v13.812c0,7.709 6.271,13.98 13.98,13.98h29.491c7.709,0 13.98-6.271 13.98-13.98v-13.812c0-7.708-6.271-13.98-13.98-13.98zm3.98,27.792c0,2.195-1.785,3.98-3.98,3.98h-29.491c-2.195,0-3.98-1.786-3.98-3.98v-13.812c0-2.195 1.785-3.98 3.98-3.98h29.491c2.195,0 3.98,1.786 3.98,3.98v13.812z"/>
    <path d="m391.418,210.604h-29.491c-7.709,0-13.98,6.271-13.98,13.98v13.812c0,7.709 6.271,13.98 13.98,13.98h29.491c7.709,0 13.98-6.271 13.98-13.98v-13.812c0.001-7.708-6.271-13.98-13.98-13.98zm3.981,27.792c0,2.195-1.785,3.98-3.98,3.98h-29.491c-2.195,0-3.98-1.786-3.98-3.98v-13.812c0-2.195 1.785-3.98 3.98-3.98h29.491c2.195,0 3.98,1.786 3.98,3.98v13.812z"/>
    <path d="m248.988,258.071h-29.491c-7.709,0-13.98,6.271-13.98,13.98v13.812c0,7.709 6.271,13.98 13.98,13.98h29.491c7.709,0 13.98-6.271 13.98-13.98v-13.812c0-7.709-6.271-13.98-13.98-13.98zm3.98,27.792c0,2.195-1.785,3.98-3.98,3.98h-29.491c-2.195,0-3.98-1.786-3.98-3.98v-13.812c0-2.195 1.786-3.98 3.98-3.98h29.491c2.195,0 3.98,1.786 3.98,3.98v13.812z"/>
    <path d="m320.203,258.071h-29.491c-7.709,0-13.98,6.271-13.98,13.98v13.812c0,7.709 6.271,13.98 13.98,13.98h29.491c7.709,0 13.98-6.271 13.98-13.98v-13.812c0-7.709-6.271-13.98-13.98-13.98zm3.98,27.792c0,2.195-1.785,3.98-3.98,3.98h-29.491c-2.195,0-3.98-1.786-3.98-3.98v-13.812c0-2.195 1.785-3.98 3.98-3.98h29.491c2.195,0 3.98,1.786 3.98,3.98v13.812z"/>
    <path d="m391.418,258.071h-29.491c-7.709,0-13.98,6.271-13.98,13.98v13.812c0,7.709 6.271,13.98 13.98,13.98h29.491c7.709,0 13.98-6.271 13.98-13.98v-13.812c0.001-7.709-6.271-13.98-13.98-13.98zm3.981,27.792c0,2.195-1.785,3.98-3.98,3.98h-29.491c-2.195,0-3.98-1.786-3.98-3.98v-13.812c0-2.195 1.785-3.98 3.98-3.98h29.491c2.195,0 3.98,1.786 3.98,3.98v13.812z"/>
    <path d="m248.988,306.855h-29.491c-7.709,0-13.98,6.271-13.98,13.98v13.812c0,7.709 6.271,13.98 13.98,13.98h29.491c7.709,0 13.98-6.271 13.98-13.98v-13.812c0-7.709-6.271-13.98-13.98-13.98zm3.98,27.792c0,2.195-1.785,3.98-3.98,3.98h-29.491c-2.195,0-3.98-1.786-3.98-3.98v-13.812c0-2.195 1.786-3.98 3.98-3.98h29.491c2.195,0 3.98,1.786 3.98,3.98v13.812z"/>
    <path d="m320.203,306.855h-29.491c-7.709,0-13.98,6.271-13.98,13.98v13.812c0,7.709 6.271,13.98 13.98,13.98h29.491c7.709,0 13.98-6.271 13.98-13.98v-13.812c0-7.709-6.271-13.98-13.98-13.98zm3.98,27.792c0,2.195-1.785,3.98-3.98,3.98h-29.491c-2.195,0-3.98-1.786-3.98-3.98v-13.812c0-2.195 1.785-3.98 3.98-3.98h29.491c2.195,0 3.98,1.786 3.98,3.98v13.812z"/>
    <path d="m391.418,306.855h-29.491c-7.709,0-13.98,6.271-13.98,13.98v13.812c0,7.709 6.271,13.98 13.98,13.98h29.491c7.709,0 13.98-6.271 13.98-13.98v-13.812c0.001-7.709-6.271-13.98-13.98-13.98zm3.981,27.792c0,2.195-1.785,3.98-3.98,3.98h-29.491c-2.195,0-3.98-1.786-3.98-3.98v-13.812c0-2.195 1.785-3.98 3.98-3.98h29.491c2.195,0 3.98,1.786 3.98,3.98v13.812z"/>
  </g>
</svg>
